<svg width="436" height="104" viewBox="0 0 436 104" fill="none" xmlns="http://www.w3.org/2000/svg">
<path d="M28.4846 10.9717C33.7241 7.93812 40.2111 4.23968 42.8308 2.74368C45.4506 1.20612 47.6961 -0.040546 47.8208 0.0010096C47.9456 0.0010096 52.3534 2.45279 57.5929 5.44479C62.8324 8.43679 67.4898 11.1379 67.9056 11.4703C68.5293 11.969 67.365 12.717 57.5098 18.3686C51.3554 21.9008 40.7933 27.9679 34.0152 31.8741C27.1955 35.8219 21.3738 39.0217 21.1243 39.0217C20.8332 38.9801 18.6293 37.8581 16.2175 36.4868C13.8057 35.0739 9.27308 32.4559 6.15433 30.669C2.994 28.8821 0.457417 27.303 0.499 27.2199C0.582167 27.1368 4.7405 24.685 9.77208 21.7761C14.8037 18.8672 23.2451 14.0052 28.4846 10.9717Z" fill="black"/>
<path d="M50.7317 28.2588C62.7492 21.319 72.7292 15.5012 72.9372 15.2935C73.1867 15.0857 73.5193 14.9195 73.6857 14.9195C73.852 14.9195 78.4678 17.4959 83.8736 20.6126C89.321 23.7292 94.1031 26.4719 94.5189 26.7212C95.1842 27.1368 95.1011 27.2615 93.6872 28.1757C92.814 28.7159 82.2518 34.8246 70.1511 41.7643C58.0919 48.7041 47.9872 54.3557 47.6545 54.3141C47.3218 54.231 42.4566 51.5715 36.8428 48.3717C31.2291 45.1719 26.6549 42.4708 26.6133 42.3461C26.6133 42.2215 27.1123 41.8475 27.7777 41.4735C28.4014 41.141 38.7141 35.157 50.7317 28.2588Z" fill="black"/>
<path d="M0.291083 98.4461C0.12475 98.4461 0 84.4419 0 67.2795C0 50.1586 0.12475 36.1128 0.291083 36.1128C0.499 36.1128 4.53258 38.3983 9.35625 41.1826C14.1383 43.9252 18.7957 46.6263 21.2075 48.1639V56.8906L23.7025 55.6439L26.1975 59.5917V55.353C26.1975 52.9843 26.3222 51.0728 26.4886 51.0728C26.6965 51.0728 26.9876 51.239 27.2371 51.4468C27.445 51.6546 32.1023 54.3557 37.5082 57.4723C42.9556 60.589 47.6545 63.1239 47.904 63.1239C48.1951 63.1239 51.0643 61.5863 54.2663 59.7163C57.4682 57.8879 67.365 52.1532 76.3054 47.0003C85.2042 41.8475 93.0635 37.2763 93.7704 36.8608C94.4358 36.4452 95.1427 36.1128 95.309 36.1128C95.5169 36.1128 95.6417 42.9695 95.6417 66.6561L94.0615 67.5288C93.2298 67.9859 85.1211 72.6401 76.0975 77.8761C67.0739 83.1121 57.0939 88.8468 53.9336 90.6337C50.8148 92.4206 48.0287 93.875 47.8208 93.875C47.5713 93.875 44.7437 92.3375 41.4586 90.509C38.2151 88.639 32.5597 85.3977 28.9004 83.2784C25.2411 81.1175 21.9144 79.289 21.4986 79.1643C20.9996 78.9566 18.2135 81.4083 10.6869 88.6806C5.15633 94.0412 0.499 98.4046 0.291083 98.4461Z" fill="black"/>
<path d="M138.79 35.644C147.15 35.644 154.234 39.164 154.234 49.064C154.234 58.964 147.15 62.44 138.79 62.44C133.202 62.44 128.714 60.944 125.898 57.996V73H118.33V36.084H125.898V40.088C128.714 37.184 133.202 35.644 138.79 35.644ZM136.282 56.148C143.014 56.148 146.71 54.168 146.71 49.064C146.71 43.916 143.014 41.936 136.282 41.936C129.55 41.936 125.898 43.916 125.898 49.064C125.898 54.168 129.55 56.148 136.282 56.148ZM176.689 35.644C179.769 35.644 181.925 36.084 183.685 36.524V42.816C181.221 42.2 179.241 41.936 177.041 41.936C172.817 41.936 167.977 42.904 163.401 46.468V62H155.877V36.084H163.401V40.484C167.273 37.008 171.849 35.644 176.689 35.644ZM201.14 62.44C190.404 62.44 183.188 58.568 183.188 49.064C183.188 39.516 190.404 35.644 201.14 35.644C211.832 35.644 219.092 39.516 219.092 49.064C219.092 58.568 211.832 62.44 201.14 62.44ZM201.14 56.148C208.092 56.148 211.524 54.432 211.524 49.064C211.524 43.652 208.092 41.936 201.14 41.936C194.144 41.936 190.712 43.652 190.712 49.064C190.712 54.432 194.144 56.148 201.14 56.148ZM239.678 52.892H247.202C247.202 55.664 250.062 56.72 258.466 56.72C266.606 56.72 267.926 56.192 267.926 54.168C267.926 52.188 266.694 52.056 257.586 51.484C246.19 50.824 240.602 49.944 240.602 43.696C240.602 36.92 248.522 35.644 257.762 35.644C267.53 35.644 274.614 36.92 274.614 44.048H267.046C267.046 41.892 264.318 41.364 257.322 41.364C250.194 41.364 248.17 41.892 248.17 43.388C248.17 45.016 249.534 45.28 258.466 45.94C268.586 46.688 275.494 46.952 275.494 53.86C275.494 61.164 268.894 62.44 258.906 62.44C248.918 62.44 239.678 61.164 239.678 52.892ZM293.965 56.324C299.157 56.324 302.325 55.356 304.217 52.716H311.697C309.981 59.316 303.557 62.44 293.965 62.44C284.109 62.44 276.453 58.568 276.453 49.064C276.453 39.516 283.889 35.644 294.405 35.644C304.261 35.644 312.137 39.032 312.137 50.824H284.153C284.989 54.96 288.949 56.324 293.965 56.324ZM294.361 41.364C289.213 41.364 285.605 42.376 284.417 46.028H304.085C302.809 42.376 299.113 41.364 294.361 41.364ZM313.796 26.8H321.32V62H313.796V26.8ZM323.629 26.8H331.153V62H323.629V26.8ZM350.319 56.324C355.511 56.324 358.679 55.356 360.571 52.716H368.051C366.335 59.316 359.911 62.44 350.319 62.44C340.463 62.44 332.807 58.568 332.807 49.064C332.807 39.516 340.243 35.644 350.759 35.644C360.615 35.644 368.491 39.032 368.491 50.824H340.507C341.343 54.96 345.303 56.324 350.319 56.324ZM350.715 41.364C345.567 41.364 341.959 42.376 340.771 46.028H360.439C359.163 42.376 355.467 41.364 350.715 41.364ZM390.962 35.644C394.042 35.644 396.198 36.084 397.958 36.524V42.816C395.494 42.2 393.514 41.936 391.314 41.936C387.09 41.936 382.25 42.904 377.674 46.468V62H370.15V36.084H377.674V40.484C381.546 37.008 386.122 35.644 390.962 35.644ZM397.934 52.892H405.458C405.458 55.664 408.318 56.72 416.722 56.72C424.862 56.72 426.182 56.192 426.182 54.168C426.182 52.188 424.95 52.056 415.842 51.484C404.446 50.824 398.858 49.944 398.858 43.696C398.858 36.92 406.778 35.644 416.018 35.644C425.786 35.644 432.87 36.92 432.87 44.048H425.302C425.302 41.892 422.574 41.364 415.578 41.364C408.45 41.364 406.426 41.892 406.426 43.388C406.426 45.016 407.79 45.28 416.722 45.94C426.842 46.688 433.75 46.952 433.75 53.86C433.75 61.164 427.15 62.44 417.162 62.44C407.174 62.44 397.934 61.164 397.934 52.892Z" fill="black"/>
<path d="M363.316 76.812C366.268 76.812 367.948 77.76 367.972 80.436V84H365.908V83.124C364.66 83.736 363.28 84.12 361.612 84.12C359.632 84.12 358.396 83.484 358.396 81.888C358.396 80.052 360.412 79.476 362.656 79.476C363.868 79.476 364.984 79.668 365.908 79.98C365.908 78.636 364.18 78.528 363.22 78.528C362.296 78.528 361.168 78.612 359.716 79.044L358.984 77.544C360.424 77.076 361.84 76.812 363.316 76.812ZM365.908 81.804V81.252C365.188 81.024 364.216 80.82 362.908 80.82C361.372 80.82 360.448 81.084 360.448 81.804C360.448 82.548 361.132 82.608 362.2 82.608C363.316 82.608 364.852 82.26 365.908 81.804ZM368.367 80.472C368.367 77.868 370.335 76.812 373.263 76.812C375.903 76.812 377.763 77.676 378.099 79.752H375.999C375.723 78.84 374.751 78.528 373.263 78.528C371.499 78.528 370.419 78.996 370.419 80.472C370.419 81.936 371.499 82.404 373.263 82.404C374.751 82.404 375.723 82.092 375.999 81.18H378.099C377.763 83.256 375.903 84.12 373.263 84.12C370.335 84.12 368.367 83.064 368.367 80.472ZM383.164 76.812C386.116 76.812 387.796 77.76 387.82 80.436V84H385.756V83.124C384.508 83.736 383.128 84.12 381.46 84.12C379.48 84.12 378.244 83.484 378.244 81.888C378.244 80.052 380.26 79.476 382.504 79.476C383.716 79.476 384.832 79.668 385.756 79.98C385.756 78.636 384.028 78.528 383.068 78.528C382.144 78.528 381.016 78.612 379.564 79.044L378.832 77.544C380.272 77.076 381.688 76.812 383.164 76.812ZM385.756 81.804V81.252C385.036 81.024 384.064 80.82 382.756 80.82C381.22 80.82 380.296 81.084 380.296 81.804C380.296 82.548 380.98 82.608 382.048 82.608C383.164 82.608 384.7 82.26 385.756 81.804ZM395.955 74.4H398.007V84H395.955V82.896C395.187 83.7 393.951 84.12 392.427 84.12C390.159 84.12 388.215 83.172 388.215 80.472C388.215 77.772 390.159 76.812 392.427 76.812C393.951 76.812 395.187 77.232 395.955 78.036V74.4ZM393.111 82.404C394.947 82.404 395.955 81.864 395.955 80.472C395.955 79.068 394.947 78.528 393.111 78.528C391.275 78.528 390.279 79.068 390.279 80.472C390.279 81.864 391.275 82.404 393.111 82.404ZM403.231 82.452C404.647 82.452 405.511 82.188 406.027 81.468H408.067C407.599 83.268 405.847 84.12 403.231 84.12C400.543 84.12 398.455 83.064 398.455 80.472C398.455 77.868 400.483 76.812 403.351 76.812C406.039 76.812 408.187 77.736 408.187 80.952H400.555C400.783 82.08 401.863 82.452 403.231 82.452ZM403.339 78.372C401.935 78.372 400.951 78.648 400.627 79.644H405.991C405.643 78.648 404.635 78.372 403.339 78.372ZM420.903 76.812C422.487 76.812 423.927 77.484 423.951 80.04L423.927 84H421.875V80.868C421.875 79.368 421.623 78.588 420.159 78.588C419.079 78.588 418.023 79.104 417.399 79.668C417.411 79.788 417.411 79.908 417.411 80.04L417.387 84H415.335V80.868C415.335 79.368 415.083 78.588 413.619 78.588C412.431 78.588 411.279 79.2 410.691 79.836V84H408.639V76.932H410.691V78.084C411.459 77.472 412.611 76.812 414.363 76.812C415.431 76.812 416.439 77.124 416.979 78.108C417.891 77.424 419.151 76.812 420.903 76.812ZM431.558 76.932H433.826L429.05 87H426.782L428.21 84H427.154L423.494 76.932H425.774L428.798 82.764L431.558 76.932Z" fill="black"/>
</svg>
